# xmcd CD database file
#
# Track frame offsets:
#	150
#	16627
#	39176
#	56694
#	76371
#	96459
#	114249
#	132927
#	148962
#	167506
#	184244
#	201088
#
# Disc length: 2962 seconds
#
# Revision: 2
# Processed by: cddbd v1.5.1PL0 Copyright (c) Steve Scherf et al.
# Submitted via: CDex 1.51
#
DISCID=9c0b900c
DTITLE=Sasha - Sasha - You
DYEAR=1900
DGENRE=
TTITLE0=Let me be the one
TTITLE1=Love is all around
TTITLE2=Take good care
TTITLE3=Something stupid
TTITLE4=Chemical reaction
TTITLE5=Club c'est la vie
TTITLE6=Pretty thing
TTITLE7=Take my hands
TTITLE8=Don't you forget me
TTITLE9=Owner of my heart
TTITLE10=It ain't that bad
TTITLE11=Reach inside
EXTD=
EXTT0=
EXTT1=
EXTT2=
EXTT3=
EXTT4=
EXTT5=
EXTT6=
EXTT7=
EXTT8=
EXTT9=
EXTT10=
EXTT11=
PLAYORDER=
